Coordinates
version=1
nRows=24
nColumns=24
inDegrees=yes

Units are S.I. units (second, meters, Newtons, ...)
Angles are in degrees.

endheader
time	pelvis_tilt	pelvis_list	pelvis_rotation	pelvis_tx	pelvis_ty	pelvis_tz	hip_flexion_r	hip_adduction_r	hip_rotation_r	knee_angle_r	ankle_angle_r	subtalar_angle_r	mtp_angle_r	hip_flexion_l	hip_adduction_l	hip_rotation_l	knee_angle_l	ankle_angle_l	subtalar_angle_l	mtp_angle_l	lumbar_extension	lumbar_bending	lumbar_rotation
      0.41300000	     -0.65827797	     -0.40754977	      3.98729179	     -0.75183002	      0.89921185	      0.30367083	     30.12599478	      1.65770656	     -6.47919311	    -25.22205552	      5.03601519	      3.76624959	      0.34442928	    -15.91556599	      0.13010509	     -0.43605029	     -8.14330657	     16.12955574	      1.13455636	      1.09764671	     -8.69776114	     -0.44473384	     -9.00162996
      0.41716667	     -0.67613839	     -0.42922172	      4.16812925	     -0.74596857	      0.89797249	      0.30382979	     30.00904932	      1.75868201	     -6.21602584	    -25.13696226	      5.09528054	      3.67203325	      1.11262706	    -15.83481855	     -0.03634665	     -0.55635456	     -9.09044097	     16.39811356	      1.57282066	      6.89565616	     -8.65473814	     -0.39677265	     -8.90324214
      0.42133333	     -0.72131302	     -0.41901738	      4.37569568	     -0.74012136	      0.89671001	      0.30393277	     29.93906034	      1.80111494	     -6.02542942	    -25.19533738	      5.25794521	      3.66735526	      1.10583531	    -15.70107237	     -0.16242540	     -0.51236459	    -10.09439568	     16.67954823	      1.92178608	      6.98170901	     -8.57280865	     -0.37560713	     -9.03706794
      0.42550000	     -0.79610646	     -0.42477585	      4.58673262	     -0.73427064	      0.89545677	      0.30407119	     29.88190253	      1.86920001	     -5.82915700	    -25.28691501	      5.29708286	      3.52540396	      1.10893105	    -15.49493182	     -0.30509945	     -0.43134068	    -11.17751609	     16.92235942	      2.18108243	      7.08094919	     -8.44891334	     -0.35440826	     -9.08755167
      0.42966667	     -0.83146252	     -0.45015311	      4.78074730	     -0.72840101	      0.89425151	      0.30427311	     29.78946438	      1.97694876	     -5.63326323	    -25.47268944	      5.37566473	      3.30785403	      1.13153486	    -15.27530274	     -0.48558481	     -0.49304827	    -12.37891199	     17.19113211	      2.65535314	      7.32210253	     -8.38941554	     -0.28614041	     -9.15957173
      0.43383333	     -0.89576217	     -0.47364526	      4.97876412	     -0.72253639	      0.89305047	      0.30449001	     29.72427830	      2.08241061	     -5.45831693	    -25.71353366	      5.40430629	      3.04538474	      1.17150644	    -14.98814468	     -0.65846091	     -0.47925326	    -13.65253138	     17.38849266	      2.99842327	      7.65448815	     -8.28522757	     -0.23498718	     -9.19749975
      0.43800000	     -0.99530120	     -0.49225008	      5.17041866	     -0.71667462	      0.89184565	      0.30472981	     29.69839744	      2.18488864	     -5.29624951	    -26.00993161	      5.36688671	      2.76386296	      1.20082158	    -14.63204168	     -0.81246113	     -0.39805806	    -14.97886959	     17.48568503	      3.15666887	      7.87334658	     -8.13267439	     -0.20396598	     -9.19046770
      0.44216667	     -1.07486822	     -0.53213455	      5.35206495	     -0.71080531	      0.89068018	      0.30501714	     29.66041998	      2.32112296	     -5.15182305	    -26.37515732	      5.35327231	      2.39835649	      1.25108369	    -14.23819088	     -1.00363376	     -0.40691436	    -16.42695248	     17.57613546	      3.47132208	      8.20526592	     -8.01114179	     -0.12613420	     -9.20445162
      0.44633333	     -1.09260528	     -0.61304856	      5.53113107	     -0.70489239	      0.88965056	      0.30537095	     29.52747756	      2.52170052	     -5.00449630	    -26.72579484	      5.39905378	      1.97737769	      1.38424538	    -13.86743709	     -1.26172329	     -0.48707671	    -17.95536833	     17.66805806	      3.92845275	      9.05209617	     -7.95848682	     -0.01822097	     -9.19311086
      0.45050000	     -1.21272620	     -0.63093501	      5.69000658	     -0.69905534	      0.88852170	      0.30569712	     29.55406220	      2.63868725	     -4.88556852	    -27.20608885	      5.34721321	      1.59617296	      1.44111741	    -13.36238019	     -1.39793564	     -0.36885068	    -19.51905932	     17.55405621	      3.90635405	      9.43297099	     -7.77895030	      0.01756708	     -9.12782692
      0.45466667	     -1.24891091	     -0.72416180	      5.84278068	     -0.69315108	      0.88756636	      0.30610160	     29.45890820	      2.86288405	     -4.75896022	    -27.64728157	      5.34950738	      1.09110208	      2.20889872	    -12.89665398	     -1.64929674	     -0.37727010	    -21.16122547	     17.37924587	      4.02446419	     14.70097537	     -7.70543610	      0.16159686	     -8.99492510
      0.45883333	     -1.34479740	     -0.76334564	      5.99951489	     -0.68732770	      0.88655764	      0.30646902	     29.46986115	      3.00474437	     -4.67888497	    -28.20536141	      5.43440513	      0.73261926	      2.20955332	    -12.31204766	     -1.81583640	     -0.27770309	    -22.90623743	     17.16868873	      4.06731555	     14.77215278	     -7.56408791	      0.21345255	     -8.95995902
      0.46300000	     -1.41001598	     -0.84277746	      6.12513370	     -0.68148113	      0.88562153	      0.30691171	     29.45025434	      3.21506106	     -4.57017445	    -28.77848334	      5.53354179	      0.24825705	      2.21753140	    -11.71146592	     -2.03852306	     -0.28312067	    -24.73889625	     16.88771822	      4.22174128	     14.97944319	     -7.46035879	      0.33812762	     -8.87600000
      0.46716667	     -1.43822143	     -0.98351658	      6.25250622	     -0.67561625	      0.88481028	      0.30739750	     29.36289449	      3.49955687	     -4.46864265	    -29.29351073	      5.64471629	     -0.23254928	      2.24900355	    -11.08642150	     -2.34722630	     -0.33583872	    -26.66964223	     16.58030154	      4.39488450	     15.81204679	     -7.38135415	      0.52252983	     -8.75187771
      0.47133333	     -1.52344861	     -1.03519759	      6.36801085	     -0.66983824	      0.88397013	      0.30781157	     29.38848938	      3.66628335	     -4.38488800	    -29.94511955	      5.85375147	     -0.61014044	      2.25841244	    -10.38794198	     -2.50156022	     -0.20364102	    -28.60126030	     16.07059967	      4.23113312	     15.98670233	     -7.25385657	      0.58975759	     -8.60506652
      0.47550000	     -1.58006058	     -1.13032048	      6.46509630	     -0.66405512	      0.88320184	      0.30827180	     29.38186998	      3.89142704	     -4.29245871	    -30.59240247	      6.08775553	     -1.01395274	      2.26490454	     -9.65944912	     -2.72101797	     -0.16536573	    -30.62833262	     15.51375437	      4.17599001	     16.24173185	     -7.15698419	      0.72243763	     -8.45099906
      0.47966667	     -1.60988960	     -1.25050009	      6.55545704	     -0.65827691	      0.88252784	      0.30873959	     29.33802316	      4.14727439	     -4.20259505	    -31.22444769	      6.37143545	     -1.39423791	      2.26626875	     -8.91611407	     -2.97187713	     -0.14219586	    -32.71015557	     14.87693916	      4.10540185	     16.52763069	     -7.08790317	      0.88844191	     -8.27895328
      0.48383333	     -1.58573801	     -1.40177259	      6.62681935	     -0.65248712	      0.88197699	      0.30923516	     29.22714977	      4.45177186	     -4.09629465	    -31.84054724	      6.73061267	     -1.78600785	      2.02252768	     -8.19727694	     -3.27353460	     -0.17933578	    -34.81500377	     14.09304315	      3.98365901	     21.93038230	     -7.08595092	      1.11559670	     -8.10080771
      0.48800000	     -1.55655691	     -1.54749611	      6.70077433	     -0.64672354	      0.88150314	      0.30967812	     29.10633925	      4.73788562	     -4.00614401	    -32.45428462	      7.13619601	     -2.06431182	      2.02907086	     -7.45736727	     -3.54730418	     -0.14023878	    -36.94152921	     13.20959851	      3.80911062	     21.94553930	     -7.09477259	      1.33364742	     -7.92875599
      0.49216667	     -1.54675886	     -1.69967517	      6.75741943	     -0.64101309	      0.88101132	      0.31013731	     29.01406452	      5.02764006	     -3.92962830	    -33.06958200	      7.49016178	     -2.38511709	      2.01998928	     -6.63525131	     -3.84069650	     -0.18170284	    -39.15303660	     12.35387601	      3.66936534	     21.99848022	     -7.06641670	      1.54033039	     -7.71182180
      0.49633333	     -1.48826844	     -1.87881357	      6.80603242	     -0.63529339	      0.88065364	      0.31060003	     28.84728723	      5.35622379	     -3.84007575	    -33.64050946	      7.91264256	     -2.66643579	      2.00113441	     -5.84911092	     -4.16900450	     -0.21758669	    -41.34987992	     11.39879978	      3.49570730	     22.06580782	     -7.09839805	      1.79905965	     -7.49475830
      0.50050000	     -1.40722533	     -2.07284218	      6.84406208	     -0.62958956	      0.88037477	      0.31105827	     28.63794987	      5.70294498	     -3.75390976	    -34.16938786	      8.35622590	     -2.91395576	      1.97409269	     -5.06216989	     -4.51707905	     -0.26638934	    -43.55124626	     10.39123329	      3.28967630	     22.13019745	     -7.15949901	      2.07349581	     -7.27372400
      0.50466667	     -1.28224198	     -2.26833014	      6.87679692	     -0.62389979	      0.88021601	      0.31150174	     28.35828656	      6.05776989	     -3.65834839	    -34.65562826	      8.87987827	     -3.11755188	      1.95924945	     -4.30643234	     -4.87248332	     -0.31877685	    -45.73202150	      9.29469635	      3.05585069	     22.15857774	     -7.28186279	      2.36939583	     -7.08834106
      0.50883333	     -1.19287187	     -2.50616595	      6.90070397	     -0.61824870	      0.88003139	      0.31196168	     28.10227527	      6.44746079	     -3.59714285	    -35.07833089	      9.26009577	     -3.34996595	      1.90224891	     -3.46710920	     -5.29144677	     -0.42784187	    -47.94618792	      8.25787084	      2.81549788	     22.20552942	     -7.33997487	      2.70051384	     -6.79604646
